<?xml version="1.0" standalone="no"?>
<!DOCTYPE svg PUBLIC "-//W3C//DTD SVG 20010904//EN"
 "http://www.w3.org/TR/2001/REC-SVG-20010904/DTD/svg10.dtd">
<svg version="1.0" xmlns="http://www.w3.org/2000/svg"
 width="1024.000000pt" height="1024.000000pt" viewBox="0 0 1024.000000 1024.000000"
 preserveAspectRatio="xMidYMid meet">

<g transform="translate(0.000000,1024.000000) scale(0.100000,-0.100000)"
fill="#000000" stroke="none">
<path d="M5113 8583 c-10 -4 -13 -104 -13 -455 l0 -449 -161 3 -161 3 6 -40
c3 -22 7 -418 7 -879 l2 -840 63 -63 c34 -35 65 -63 68 -63 3 0 6 278 6 619
l0 618 103 7 c56 3 149 9 207 12 l105 7 0 -609 c0 -335 1 -630 4 -657 l4 -47
47 44 c25 24 56 47 68 50 l22 7 0 910 0 909 -58 0 c-33 0 -92 3 -133 6 l-74 7
3 447 4 447 -24 6 c-27 8 -77 8 -95 0z m227 -1211 l0 -159 -137 -6 c-75 -4
-164 -7 -198 -7 -62 0 -63 0 -69 31 -3 17 -6 92 -6 165 l0 134 205 0 205 0 0
-158z"/>
<path d="M2494 8230 c-379 -4 -474 -8 -487 -19 -16 -12 -17 -243 -17 -3123 l0
-3109 26 -24 27 -25 3128 0 3128 0 28 24 28 24 5 3097 c3 1703 2 3105 -2 3115
-4 10 -16 24 -27 29 -14 8 -400 12 -1276 13 l-1256 1 -29 -28 c-37 -35 -44
-58 -29 -87 21 -42 72 -88 103 -93 17 -4 537 -7 1156 -8 l1125 -2 7 -1200 c3
-660 4 -1688 3 -2285 -2 -597 -4 -1374 -4 -1727 l-1 -643 -2960 0 -2960 0 0
2928 0 2927 1129 0 1130 0 28 21 c15 11 41 39 57 62 l29 40 -21 30 c-48 67 7
63 -835 65 -419 1 -974 0 -1233 -3z"/>
<path d="M5664 6688 c4 -299 9 -560 12 -581 l6 -37 33 27 c18 16 45 36 59 46
l26 18 0 399 c0 220 2 400 5 400 5 0 131 -103 193 -157 21 -18 63 -46 95 -63
l57 -31 -7 -156 c-6 -151 -6 -156 13 -149 10 5 39 15 64 23 25 9 48 18 52 22
4 3 8 78 9 166 l2 159 -104 76 c-57 42 -172 125 -256 184 -83 60 -175 128
-203 152 -28 24 -54 44 -57 44 -3 0 -3 -244 1 -542z"/>
<path d="M4548 7136 c-62 -22 -106 -55 -283 -210 -49 -43 -113 -92 -142 -108
l-53 -30 0 -178 0 -178 66 -31 c36 -17 68 -31 70 -31 2 0 4 79 4 175 l0 174
30 16 c17 9 76 45 132 80 98 62 188 102 207 91 5 -3 11 8 15 25 9 44 8 219 -1
219 -5 -1 -25 -7 -45 -14z"/>
<path d="M3475 6305 c-367 -59 -723 -328 -863 -650 -75 -173 -96 -283 -97
-490 0 -176 11 -252 57 -385 150 -433 538 -729 1023 -781 163 -18 323 4 490
68 198 75 284 143 737 581 103 100 197 186 208 192 18 10 13 18 -80 113 l-99
102 -18 -25 c-45 -64 -368 -389 -547 -549 -338 -305 -828 -316 -1191 -28 -144
114 -266 306 -305 481 -33 148 -31 355 5 490 66 251 244 455 498 571 232 105
539 93 791 -31 108 -54 163 -103 691 -624 281 -277 948 -920 1060 -1021 189
-172 358 -257 614 -309 352 -72 739 39 1000 285 255 241 375 520 374 870 -1
207 -54 426 -136 563 -175 291 -387 464 -678 553 -93 28 -121 32 -260 36 -136
5 -171 2 -259 -17 -254 -54 -413 -136 -625 -320 -79 -69 -298 -274 -400 -375
-44 -44 -101 -97 -127 -118 l-46 -38 90 -92 89 -92 147 150 c215 220 467 446
573 515 160 103 405 155 624 131 252 -27 471 -170 638 -415 39 -58 94 -207
112 -305 39 -215 1 -463 -96 -626 -116 -194 -282 -338 -481 -418 -249 -99
-581 -67 -817 80 -91 57 -132 93 -461 416 -140 137 -334 327 -430 421 -96 94
-229 223 -295 286 -66 63 -196 189 -290 280 -170 166 -305 280 -424 360 -62
42 -229 120 -300 140 -137 40 -340 50 -496 25z"/>
<path d="M6205 5737 l-70 -54 1 -129 c0 -71 2 -311 5 -533 l4 -404 60 -53 c33
-30 63 -54 68 -54 4 0 7 288 7 640 0 352 -1 640 -3 640 -1 0 -34 -24 -72 -53z"/>
<path d="M4080 5146 c0 -339 2 -616 6 -616 18 0 124 84 124 98 0 9 0 244 0
521 l-1 505 -26 20 c-15 12 -44 36 -65 55 l-38 33 0 -616z"/>
<path d="M3408 5486 c3 -101 1 -209 -2 -239 l-7 -56 -225 6 -224 6 1 -84 c0
-140 14 -229 44 -292 27 -56 98 -147 108 -137 5 5 -9 322 -15 351 -2 12 25 14
152 14 l155 0 6 -280 c4 -154 7 -288 8 -297 1 -16 28 -28 94 -42 l27 -6 0 417
c0 230 3 475 7 546 l6 127 118 0 119 0 2 -542 c3 -477 5 -543 18 -540 8 2 39
6 68 9 l52 6 0 608 0 609 -258 0 -259 0 5 -184z"/>
<path d="M6450 5513 c0 -87 -2 -364 -4 -615 -3 -252 -2 -459 2 -462 4 -2 30
-7 58 -11 l51 -7 8 174 c5 95 8 345 6 556 l-2 382 141 -2 140 -3 0 -543 0
-544 33 7 c17 4 48 13 67 19 l35 11 3 362 2 362 118 3 c64 2 118 3 119 3 0 0
4 -81 7 -180 4 -99 9 -205 12 -235 l6 -55 30 35 c16 19 42 62 58 95 26 55 30
75 39 231 6 94 11 183 11 198 l0 26 -199 0 c-149 0 -202 3 -208 13 -4 6 -10
84 -13 172 l-5 160 -257 3 -258 2 0 -157z"/>
<path d="M5157 4733 c-15 -14 -6 -31 12 -26 12 3 17 11 14 19 -6 15 -16 18
-26 7z"/>
<path d="M5352 4084 l3 -467 70 -1 c39 0 69 3 68 7 -2 4 -3 185 -3 402 l0 395
-42 46 c-23 25 -54 54 -70 65 l-28 21 2 -468z"/>
<path d="M7823 4472 c-65 -60 -65 -57 -66 -468 -1 -238 2 -376 8 -382 6 -4 38
-6 73 -4 51 3 62 7 58 19 -3 8 -6 206 -6 439 0 409 -1 424 -19 424 -10 0 -32
-12 -48 -28z"/>
<path d="M4854 4430 l-57 -61 -4 -379 -4 -380 64 0 64 0 6 233 c10 341 9 635
-3 642 -5 3 -35 -21 -66 -55z"/>
<path d="M2476 4400 c-3 -39 -3 -231 0 -428 l7 -357 64 0 63 0 0 321 c0 224 3
323 11 331 9 9 6 21 -12 50 -27 46 -112 153 -120 153 -3 0 -9 -32 -13 -70z"/>
<path d="M5680 3953 c0 -166 -3 -308 -6 -317 -5 -13 4 -15 55 -13 l60 2 5 40
c3 22 7 135 10 250 l4 211 -28 29 c-15 17 -43 46 -63 64 l-37 35 0 -301z m37
-289 c-3 -3 -12 -4 -19 -1 -8 3 -5 6 6 6 11 1 17 -2 13 -5z"/>
<path d="M4606 4205 c-3 -8 -1 -15 4 -15 6 0 10 7 10 15 0 8 -2 15 -4 15 -2 0
-6 -7 -10 -15z"/>
<path d="M7454 4072 l-59 -38 0 -207 0 -207 68 0 67 0 0 245 c0 135 -4 245 -8
245 -5 0 -35 -17 -68 -38z"/>
<path d="M2884 4051 c4 -5 6 -104 6 -220 l1 -211 75 0 75 0 -6 173 c-4 94 -8
177 -10 184 -2 6 -31 27 -65 47 -60 35 -87 45 -76 27z"/>
<path d="M4612 3975 c0 -16 2 -22 5 -12 2 9 2 23 0 30 -3 6 -5 -1 -5 -18z"/>
<path d="M4132 3897 c-44 -15 -61 -25 -57 -35 3 -7 5 -65 5 -128 l0 -114 60 0
60 0 0 150 c0 83 -1 150 -2 149 -2 0 -31 -10 -66 -22z"/>
<path d="M6150 3865 c0 -25 4 -35 13 -32 6 2 12 9 12 15 0 24 20 32 59 21 21
-6 40 -8 43 -5 8 7 -33 22 -84 31 l-43 7 0 -37z"/>
<path d="M3410 3735 l0 -116 58 3 57 3 0 99 0 100 -50 13 c-27 7 -53 13 -57
13 -5 0 -8 -52 -8 -115z"/>
<path d="M6260 3835 c0 -8 2 -15 4 -15 2 0 6 7 10 15 3 8 1 15 -4 15 -6 0 -10
-7 -10 -15z"/>
<path d="M6261 3744 c0 -11 3 -14 6 -6 3 7 2 16 -1 19 -3 4 -6 -2 -5 -13z"/>
<path d="M6856 3684 c-3 -9 -6 -27 -6 -40 0 -23 3 -24 58 -23 31 1 44 4 27 6
-63 8 -75 13 -75 34 0 11 4 17 10 14 6 -3 7 1 4 9 -8 20 -10 20 -18 0z"/>
<path d="M6255 3630 c-3 -5 1 -10 9 -10 9 0 16 5 16 10 0 6 -4 10 -9 10 -6 0
-13 -4 -16 -10z"/>
<path d="M7682 2553 c-6 -20 -7 -32 -2 -27 10 10 25 64 18 64 -3 0 -10 -16
-16 -37z"/>
<path d="M6918 2508 c5 -5 16 -8 23 -6 8 3 3 7 -10 11 -17 4 -21 3 -13 -5z"/>
<path d="M3333 2503 c15 -2 37 -2 50 0 12 2 0 4 -28 4 -27 0 -38 -2 -22 -4z"/>
<path d="M7518 2503 c7 -3 16 -2 19 1 4 3 -2 6 -13 5 -11 0 -14 -3 -6 -6z"/>
<path d="M7593 2503 c15 -2 37 -2 50 0 12 2 0 4 -28 4 -27 0 -38 -2 -22 -4z"/>
</g>
</svg>
